<?xml version="1.0" standalone="no"?><!DOCTYPE svg PUBLIC "-//W3C//DTD SVG 1.1//EN" "http://www.w3.org/Graphics/SVG/1.1/DTD/svg11.dtd" <svg id="svgContent" version="1.1" width="837" height="576" style="position: relative; width: 837px; height: 576px; margin:auto; user-select: none; cursor: default;" xmlns="http://www.w3.org/2000/svg" xmlns:xlink="http://www.w3.org/1999/xlink" viewBox="0 0 837 576"><g id="svgPath"><path d="M 682 2.672 C 675.538 5.995, 677.357 1.521, 664.380 46 C 647.683 103.233, 591.404 285.019, 575.297 333.750 C 569.434 351.488, 564.214 366, 563.696 366 C 563.136 366, 562.980 362.254, 563.309 356.750 C 564.155 342.635, 565.822 291.639, 567.485 229 C 568.310 197.925, 569.505 158.003, 570.142 140.285 C 571.211 110.509, 571.168 107.728, 569.573 103.553 C 567.448 97.989, 560.630 91.761, 554.195 89.505 C 543.267 85.674, 526.833 86.850, 518.394 92.066 C 512.368 95.790, 502.691 112.510, 459.977 193 C 417.168 273.669, 407.235 291, 403.811 291 C 400.069 291, 388.159 272.531, 379.952 254 C 371.100 234.012, 366.576 219.117, 360.514 190 C 357.603 176.018, 352.374 170.486, 342.292 170.722 C 335.580 170.880, 325.203 175.843, 316.063 183.270 C 312.523 186.146, 304.284 195.025, 297.755 203 C 256.018 253.978, 235.956 276, 231.255 276 C 229.097 276, 227.058 269.765, 225.439 258.210 C 222.873 239.905, 221.230 236.572, 212.145 231.230 C 208.274 228.955, 206.334 228.502, 200.500 228.510 C 190.738 228.524, 183.363 232.587, 172.540 243.915 C 147.190 270.448, 144.739 272.116, 130.081 272.802 C 119.852 273.280, 113.219 271.765, 97.863 265.441 C 92.013 263.031, 85.397 260.767, 83.161 260.410 C 73.746 258.904, 66.567 263.195, 63.130 272.382 C 60.800 278.610, 58.712 291.861, 59.173 297.500 C 59.477 301.215, 59.999 301.837, 66.500 306.230 C 83.663 317.826, 97.833 323.041, 114.070 323.737 C 136.379 324.694, 150.877 318.865, 175.305 299.118 C 180.147 295.203, 184.558 292, 185.106 292 C 187.099 292, 189.308 299.945, 194.611 326.191 C 203.430 369.836, 208.218 382, 216.579 382 C 217.395 382, 220.835 381.066, 224.222 379.925 C 241.254 374.187, 258.220 358.102, 289.537 318 C 303.928 299.571, 312.110 290.513, 316.341 288.324 C 321.851 285.474, 322.127 286.120, 339.886 343.500 C 344.312 357.800, 350.436 376.925, 353.496 386 C 356.555 395.075, 360.205 407, 361.606 412.500 C 363.008 418, 364.907 423.353, 365.827 424.395 C 368.196 427.079, 374.628 429.753, 380.625 430.546 L 385.750 431.224 388.716 426.862 C 392.200 421.740, 465.456 299.957, 475.442 282.687 C 479.199 276.189, 482.640 271.240, 483.089 271.689 C 484.318 272.918, 485.865 284.685, 487.074 302 C 487.685 310.754, 488.380 363.635, 488.670 423.500 C 489.257 544.642, 488.178 532.200, 499.213 545.035 C 509.814 557.363, 526.344 570.043, 537.189 574.164 C 546.663 577.764, 555.670 575.922, 560.674 569.361 C 562.082 567.515, 565.816 559.590, 568.971 551.752 C 574.334 538.427, 606.994 441.129, 640.394 338.974 C 654.019 297.302, 656.926 289.593, 658.445 291.112 C 658.780 291.447, 657.692 307.825, 656.027 327.508 C 654.362 347.192, 653 363.898, 653 364.633 C 653 369.196, 697.692 396.806, 719.888 405.955 C 737.713 413.303, 742.970 408.947, 761.620 371.378 C 767.933 358.662, 774.088 347.332, 775.299 346.201 C 776.947 344.662, 783.906 342.756, 803 338.615 C 817.025 335.573, 830.162 332.825, 832.194 332.507 C 835.662 331.966, 835.928 331.665, 836.538 327.595 C 836.896 325.211, 837.011 314.539, 836.795 303.880 C 836.241 276.541, 835.615 275.411, 819.065 271.906 C 807.560 269.469, 784.412 273.657, 769.500 280.873 C 757.431 286.714, 753.389 291.245, 744.392 309.020 C 740.195 317.311, 736.585 323.919, 736.370 323.704 C 735.922 323.255, 739.090 265.978, 742.052 221 C 745.905 162.472, 749.294 122.261, 753.538 84.715 C 754.892 72.734, 756 57.811, 756 51.553 C 756 29.127, 750.528 13.197, 740.747 7.153 C 734.855 3.511, 719.965 0.810, 703 0.305 C 687.540 -0.155, 687.486 -0.149, 682 2.672 M 13 265.885 C 4.500 267.693, 0.721 271.946, 0.208 280.282 C -0.116 285.538, 0.187 287.033, 2.166 289.946 C 6.401 296.180, 10.025 297.519, 22.252 297.364 C 34.183 297.213, 36.629 296.296, 40.044 290.696 C 41.352 288.551, 41.993 285.692, 41.993 282 C 41.993 274.893, 39.391 270.495, 33.723 268.019 C 28.873 265.900, 18.132 264.794, 13 265.885" stroke="none" fill="#f49804" fill-rule="evenodd"></path></g></svg>