<svg id="a2d39daf-af97-42ab-b839-b240b608d267" data-name="tUEZHUT" xmlns="http://www.w3.org/2000/svg" viewBox="0 0 787 264.67"><defs><style>.e1ced06c-784c-4625-a1c9-355d953c108a{fill:#fff;}.a0633495-f8e8-4dc4-b8e9-e4bf2b14dd97{fill:#fff;}.e669d074-066c-45c9-9a81-aaa7f9913086{fill:#fff;}.b9737e15-02e8-46a5-ab28-3c00d801016c{fill:#fff;}.a8bd9672-1397-46ee-b45d-bd69621ef3be{fill:#fff;}.a8724cb3-7f55-49de-89a7-50c13e9c09a2{fill:#fff;}.f7bfbab9-cb19-445e-aa7c-a77a5d3667bb{fill:#fff;}.e8893a14-e194-459d-ac8d-8ef3ffb3389e{fill:#fff;}</style></defs><g id="b58eef26-1ada-4d38-a073-487097220b8a" data-name="logo"><path id="ea5e27b3-5a8e-4411-802a-35cffa4e5a09" data-name="house" class="e1ced06c-784c-4625-a1c9-355d953c108a" d="M65.46,292.38l.13-.15.61-.83.36-.4.62-.83.61-.64.63-.82.59-.65L70.85,286l4-3.93L76.12,281l.89-.86,1.07-.86.4-.37.83-.61.65-.6.82-.62.16-.12.82-.63a.83.83,0,0,0,.15-.11l.83-.62a.91.91,0,0,0,.16-.11l.57-.39.42-.34.57-.38a.91.91,0,0,0,.16-.11l.58-.38.16-.11.57-.38a.91.91,0,0,0,.16-.11l.57-.39.17-.1,1-.65.17-.1,1.06-.63.17-.1,1-.64.17-.09,2-1.12,1.14-.6,1.59-.81,2.06-1,1.13-.49.59-.26,1.13-.47.59-.25.63-.25.59-.25,1.37-.48.59-.25,1.38-.47.83-.28,2.11-.7,1.16-.33.55-.17.43-.07,1.3-.41.41-.08.56-.18,1.41-.31.56-.16.66-.09.56-.17.67-.07.56-.17.66-.09.56-.17.67-.07.57-.15.9-.1.57-.15,1.15-.09.8-.17,1.41-.08.57-.14,1.39-.1,1.07-.11,2.36-.13,1.56-.14h6.94l1.56.14,2.13.08,1.31.17,1.38.1.58.14,1.39.09.82.15,1.14.11.57.14.9.1.57.14,1.89.34.57.17.66.07.56.16.65.11.58.15,1.4.31.56.19.41.08,1.31.39.42.07.56.18,1.14.35,2.12.69.83.27,1.37.49.6.22,1.37.5.59.23,5.54,2.46,1.09.49,1.09.58.66.33,2.52,1.39a.7.7,0,0,0,.17.09l1.06.64.17.1,1.06.63a1,1,0,0,0,.17.1,8,8,0,0,0,1,.84,83.87,83.87,0,0,1,14.51,11.77,78.32,78.32,0,0,1,12.66,16.87,71.38,71.38,0,0,1,9.6,34.75c.19,26.46.09,52.92.09,79.38a5.48,5.48,0,0,1-.37,1.37c-.49,0-1,.06-1.47.06H170.09c-.41,0-.82,0-1.22-.05a8.58,8.58,0,0,1-.18-1.31q0-38.21,0-76.41c0-3.22-.2-6.43-.21-9.65a23.47,23.47,0,0,0-2.2-9.7,43.67,43.67,0,0,0-2.57-4.36.91.91,0,0,0-.11-.16l-.62-.83-.12-.15-.62-.83-.36-.4-3.16-3.19-.66-.57-.82-.64-.16-.1-.57-.39-.15-.12-.58-.39-.17-.09-.58-.37-1.63-.85-1.09-.55-.59-.26-5.23-1.65-.89-.13-.89-.17-1.65-.08-.57-.15-13.35,0-.79.19-1.73.09-.73.15-.67.07-1.53.42-.43.08-.56.16-.42.09-3.09,1.2-1.84.93-1.07.61-.64.38-.57.39-.43.31-.57.39-.16.11-.8.66-.92.81a5,5,0,0,0-.9.54,26.8,26.8,0,0,0-8.4,19.58c-.1,28.22,0,56.43,0,84.64,0,.57-.07,1.13-.1,1.7-.49,0-1,.08-1.47.08H51.61A14.2,14.2,0,0,1,50,417c0-.65,0-1.3,0-2q0-37,0-74.11a95.28,95.28,0,0,1,1-14.12,73.39,73.39,0,0,1,6.38-20.71c1.09-2.31,2.33-4.56,3.5-6.83l.1-.17c.7-1.09,1.4-2.18,2.09-3.27a1.67,1.67,0,0,0,.12-.16l.37-.58a.79.79,0,0,0,.12-.15l1.12-1.56a.91.91,0,0,0,.11-.16Z" transform="translate(-13.82 -152.49)"/><path id="b3d5cf15-6711-4dd0-8b3a-384d251715e2" data-name="roof" class="a0633495-f8e8-4dc4-b8e9-e4bf2b14dd97" d="M234.34,167.18v4.25c1.42-.2,2.8-.43,4.19-.6,3.44-.4,6.88-.8,10.32-1.16,3.27-.34,6.55-.64,9.84-1,1.82-.17,3.64-.39,5.47-.49.89-.05,1.22-.27,1.34-1.25.37-3.16-.08-3.23,3.67-3.44,1.92-.11,3.85,0,5.77,0,1.64,0,1.76.14,1.69,1.74,0,.4,0,.79,0,1.46,2.07-.42,4-.77,5.93-1.22a61.4,61.4,0,0,0,20-8.14c1.84-1.2,3.5-2.68,5.28-4a11.08,11.08,0,0,1,1.91-.88l.31.51c-1,.88-2,1.81-3.07,2.64a58.61,58.61,0,0,1-24.82,11.09c-1.68.34-3.37.64-5,1-.36.09-.88.48-.93.8-.4,2.49-.7,5-1,7.49a2.62,2.62,0,0,0,.13.52c2-.09,4-.1,5.91-.3a77.84,77.84,0,0,0,15.35-3c1.33-.41,2.62-.91,4-1.33.71-.23.92-.6.79-1.37-.3-1.77-.15-2.06,1.47-2.72,2.72-1.12,5.45-2.21,8.21-3.22a12.18,12.18,0,0,1,2.21-.21,2,2,0,0,0,1.07-.46q4.68-4.74,9.3-9.52c.06-.06.06-.17.12-.21.52-.4.71-1.49,1.67-.88a3.51,3.51,0,0,1-.64,1.56,61.72,61.72,0,0,1-10.13,10.43,2,2,0,0,0-.79,1.46c.47,3.46,1.06,6.91,1.61,10.36a5.25,5.25,0,0,0,.35.83,54.6,54.6,0,0,0,4.51-3.2c2.7-2.36,5.28-4.86,7.91-7.3.08-.08.15-.25.24-.26.4-.06.8-.08,1.2-.12-.1.31-.1.72-.3.92-2.73,2.58-5.46,5.14-8.23,7.66a18.87,18.87,0,0,1-2.77,2,6,6,0,0,0-3.14,3.58c-.67,2.29-4.3,3.91-6.5,2.21a1.73,1.73,0,0,0-1.24-.13,8.66,8.66,0,0,0-2.08.71,2.68,2.68,0,0,0-1.15,1.08,5.26,5.26,0,0,1-3.2,3,3.28,3.28,0,0,1-4.15-1.36,1.22,1.22,0,0,0-.94-.44,103.22,103.22,0,0,1-20,.7c-4.68-.19-9.34-.73-14-1.11l-9.74-.77h-.49c-2.22-.16-2.22-.16-2.61,2-.17,1-.36,2-.55,3,2.91.47,5.69.88,8.45,1.37,4.93.85,9.84,1.79,14.77,2.62,3.05.51,6.12.87,9.18,1.3.72.1,1.22,0,1.46-.89a14.6,14.6,0,0,1,1.23-2.91c.21-.38.81-.53,1.23-.79a5.33,5.33,0,0,1,.48,1.27,24.83,24.83,0,0,0,.25,2.89,1.61,1.61,0,0,0,1.21.9c2.52.16,5.05.31,7.57.25,12.33-.31,23.5-4,33.22-11.69,1.31-1,2.51-2.2,3.82-3.25a3.61,3.61,0,0,1,1.24-.38c-.14.42-.16,1-.45,1.23a56,56,0,0,1-18.52,11.69,52.87,52.87,0,0,1-19,3.43c-2.45,0-4.89,0-7.34,0a2.39,2.39,0,0,0-.51.13,4,4,0,0,1-2.77,4.37,5.34,5.34,0,0,0,.42-.91,5,5,0,0,0,.45-2.19,2.57,2.57,0,0,0-1.43-1.58c-.88-.33-.92.68-1.14,1.24-.79,2-1.55,4-2.39,6.22,2.32.44,4.55,1,6.82,1.27a101.58,101.58,0,0,0,12.5,1.17,67.25,67.25,0,0,0,12-1.29,50.71,50.71,0,0,0,21.63-10.16c.13-.1.23-.28.37-.31.46-.09.94-.14,1.41-.2-.22.39-.34.91-.66,1.16a56,56,0,0,1-22,10.66,53.36,53.36,0,0,1-16.17,1.16c-5.33-.43-10.62-1.47-15.93-2.21a2.64,2.64,0,0,0-1.48.18,5.38,5.38,0,0,1-7.19-1.89,1.51,1.51,0,0,0-.8-.63c-9.79-2.5-19.46-5.46-29.45-7.12a87.15,87.15,0,0,0-19.2-1.48,53.89,53.89,0,0,0-24.13,6.84,4.53,4.53,0,0,0-.44.37c1.81,3,.65,5.72-.75,8.43-.92,1.78-1.83,3.57-2.73,5.35-2.59,5.15-2.66,10.28.62,15.1,2.93,4.31,6,8.57,9.32,12.58,5.42,6.52,11,12.88,16.72,19.2,3.88,4.32,8,8.44,11.95,12.65,5.5,5.81,11.09,11.56,16.48,17.47a49.08,49.08,0,0,1,5.09,7c3.24,5.12,2.1,11.42-1.47,15.88a14.16,14.16,0,0,1-9.16,5.63,8.38,8.38,0,0,1-6.89-1.88,65.55,65.55,0,0,1-7.81-7.73c-6.69-8.23-13.09-16.7-19.73-25a106.72,106.72,0,0,0-7.62-8.3c-5-5-10-10-15.2-14.77a48.84,48.84,0,0,0-23.51-12,81.57,81.57,0,0,0-16.61-2c-4.37,0-8.76,0-13.11.3s-8.67.95-13,1.72c-5.81,1.06-11.62,2.19-17.34,3.65a73.6,73.6,0,0,0-27.25,13A55.24,55.24,0,0,0,64.27,280c-5.77,8-11.36,16.17-17,24.27-3.53,5.05-6.83,10.28-11.1,14.76-3.28,3.44-7.06,4.14-11.23,1.87a21.1,21.1,0,0,1-10.81-14.3c-1-4.29.51-8,3.32-11.29,3.76-4.42,8.35-7.9,12.86-11.47,8.29-6.56,16.71-13,24.05-20.65,4.94-5.14,9.58-10.59,14.11-16.1,5.81-7.1,11.39-14.39,17-21.61,5.11-6.52,10.1-13.13,15.32-19.56s10.51-12.59,15.85-18.81a52.53,52.53,0,0,1,10.41-9.62,18.24,18.24,0,0,1,3.79-2c3.37-1.23,6.35-.39,8.24,2.65,1.67,2.69,2.86,5.67,4.32,8.49a56,56,0,0,0,4,7.24c1.17,1.6,3,2.72,4.56,4,3.58,3,7.12,6.11,10.76,9.07,2.72,2.21,5.5,4.38,9,5.39a3.11,3.11,0,0,0,3.86-1.31c1.31-2.33,2.37-4.81,3.45-7.26,1-2.16,1.66-4.43,2.69-6.55,1-2,2.4-2.54,4.57-2.24.59.08,1.19.13,1.8.2a11.17,11.17,0,0,1,0-1.65,5.18,5.18,0,0,1,.48-1.12c.31.22.62.42.92.65a2.38,2.38,0,0,1,.35.44c1-.94,2.22-1.6,2-3.27-.11-.7.33-1.1,1.08-.77a2.17,2.17,0,0,0,2.9-.79c.49-.64,1.2-1.11,1.74-1.72a6,6,0,0,0,.65-1.23c.18-.34.29-1,.54-1,1.31-.31.84-1.13.66-1.9-.26-1.09-.5-2.18-.76-3.27l.46-.13,1.41,4.85c2.41-1.46,4.67-2.85,6.93-4.21a61.08,61.08,0,0,1,15.43-6.16c3-.82,6-1.41,9.07-2,.87-.18,1.28-.46,1.24-1.43a13.32,13.32,0,0,1,.26-2.66c0-.26.3-.49.46-.73Zm67.32,5.75c-.46.12-.62.15-.77.2a77.51,77.51,0,0,1-23.79,4.48,5,5,0,0,0-3.69,1.21,3.6,3.6,0,0,1-4.54,0,4.58,4.58,0,0,0-5-.1,3.58,3.58,0,0,1-5.16-.14,2,2,0,0,0-1.16-.48c-2-.05-3.92,0-5.88,0-.65,0-.94.2-1,.87-.24,1.4-.58,2.78-.86,4.17-.14.74.29.88.92.92,3,.22,5.92.5,8.88.72,5.44.42,10.88,1,16.33,1.2a100.59,100.59,0,0,0,19.77-.74,1.85,1.85,0,0,0,1.22-.94,4.62,4.62,0,0,1,2.82-2.72A20.91,20.91,0,0,1,303,181ZM271,202.43a3.71,3.71,0,0,1,4-2.26,20.57,20.57,0,0,1,4.63,1.5c.53-1.39,1.15-3,1.81-4.76a12.54,12.54,0,0,0-1.31-.33c-3.33-.5-6.68-.94-10-1.49-6.82-1.11-13.63-2.28-20.45-3.44a3.43,3.43,0,0,0-2.93.62,4.63,4.63,0,0,1-6-.83,3,3,0,0,0-1.64-1,19.68,19.68,0,0,0-3.52-.29c-7.46-.11-14.9,0-22.21,1.9a53.88,53.88,0,0,0-16.76,7.56,5,5,0,0,0-.7.68l.21.34c1.27-.5,2.58-.9,3.79-1.5a57.79,57.79,0,0,1,25.36-5.5c2.92,0,5.84.44,8.76.67a110.08,110.08,0,0,1,18,3.2C258.34,199.1,264.6,200.77,271,202.43Zm-5.78-33c-1.81.13-3.39.23-5,.37-5.76.53-11.52,1-17.27,1.63-2.63.27-5.24.74-7.86,1.09a1,1,0,0,0-1,1.08c-.06,1-.14,1.95-.29,2.92s.05,1.32,1.16,1.18c2.3-.28,4.62-.5,6.93-.56,5.11-.15,10.22-.17,15.32-.3a1.56,1.56,0,0,0,1.14-.73,3.68,3.68,0,0,1,3.53-2.19,18.43,18.43,0,0,1,2.57.41C264.71,172.75,265,171.2,265.23,169.41Zm-17.64,18.9c.17-.7.31-1.28.44-1.86.34-1.51.28-1.57-1.27-1.61-6.77-.2-13.54-.46-20.29.41-2.82.36-5.62.88-8.42,1.41a2.2,2.2,0,0,0-1.2.85,2.58,2.58,0,0,1-3.32.93,1.62,1.62,0,0,0-2.39.81,2.5,2.5,0,0,1-3.31,1.23,1.65,1.65,0,0,0-1.22.08c-3.38,2-6.74,4.12-10.09,6.21a4.34,4.34,0,0,0-.72.81l.18.27a4.1,4.1,0,0,0,.87-.21c2.08-1,4.15-2.08,6.24-3.07a55.66,55.66,0,0,1,19.72-5.22,85.52,85.52,0,0,1,15.84,0,3,3,0,0,0,2.11-.42,4.75,4.75,0,0,1,5.77-1.15Zm-30.36-2.8c.36,0,.75-.08,1.14-.15a87.83,87.83,0,0,1,16.47-1.84c4,0,8.08.17,12.12.22.62,0,1.52.38,1.75-.61.38-1.61.66-3.23,1-5-.51,0-.94-.09-1.37-.07-4.59.24-9.19.47-13.78.78a2.43,2.43,0,0,0-1.47.9,4.32,4.32,0,0,1-5.84.66A1.78,1.78,0,0,0,226,180c-2.28.44-4.57.89-6.81,1.48-2.81.74-2.79.8-2.14,3.7A2.43,2.43,0,0,0,217.23,185.51Zm-23.67,7.68.23.17a17.14,17.14,0,0,0,2.82-1.57,58.18,58.18,0,0,1,12.48-7.89,1,1,0,0,0,.62-1.45,1.31,1.31,0,0,1,1-1.85c1.05-.34,2.06-.78,3.1-1.15,1.91-.67,2.06-.58,2.51,1.35,0,.06.11.1.18.16,3.17-.7,6.35-1.4,9.51-2.14a1.22,1.22,0,0,0,.76-.68,2.58,2.58,0,0,1,2.17-1.76,30.89,30.89,0,0,1,3.87,0v-3.54c-3,.68-5.92,1.3-8.83,2a61.41,61.41,0,0,0-20.92,9.29c-1,.73-2.26,1.29-2.63,2.73-.09.33-.74.52-1.15.73s-.67.1-.87.3q-2.32,2.25-4.59,4.58A2.12,2.12,0,0,0,193.56,193.19Zm111-10.07c1-.38,2-.68,2.84-1.07a1.11,1.11,0,0,0,.44-.76A4.81,4.81,0,0,1,313,177c.35,0,.7,0,1.13,0-.4-2.49-.78-4.89-1.17-7.28-.11-.66-.47-.91-1.14-.64-2.72,1.11-5.46,2.17-8.16,3.33a1.44,1.44,0,0,0-.69,1.19C303.42,176.69,304,179.76,304.54,183.12Zm-39.3-6.47c1.95.48,2.19.31,3.28-1.11a4,4,0,0,1,2.1-1.53,16.26,16.26,0,0,1,3.74.05c.24-1.73.51-3.72.8-5.88-.61.06-1,.08-1.38.13l-4.22.6c-1.05.15-2.4-.08-3.05.5s-.58,1.92-.74,3C265.55,173.79,265.41,175.23,265.24,176.65Zm-55.17,8a47.73,47.73,0,0,0-15.74,11.14,18.71,18.71,0,0,0,3.61-1.55c2.88-1.61,5.73-3.28,8.59-4.93.24-.14.59-.26.69-.48.58-1.39,1.72-1.86,3.24-2Zm6.19,0c0-1.49-.45-2.2-1.19-1.95-1.28.42-2.53.9-3.77,1.41a1,1,0,0,0-.41.73,4,4,0,0,0,.21,1.54,1.13,1.13,0,0,0,.87.59,4.22,4.22,0,0,0,1.27-.64c.78-.42,1.58-.84,2.36-1.27C215.87,185,216.12,184.81,216.26,184.72Zm94.17-17.54-.25-.43c-2.38.94-4.77,1.87-7.13,2.85-.29.12-.46.55-.68.83.32.06.72.28,1,.16C305.72,169.49,308.07,168.33,310.43,167.18Zm-67.77,22.44c1.14.16,2.14.32,3.15.41a2.28,2.28,0,0,0,.87-.26c-.15-.3-.22-.7-.46-.88A2.77,2.77,0,0,0,242.66,189.62Zm-.52,1c.73,1.19,1.73,1.31,3.52.52Zm24.39-23.08.05.57,2.86-.35,0-.22Z" transform="translate(-13.82 -152.49)"/><path id="b5af9926-797a-4a36-a056-6aedcb46c5be" data-name="H" class="e669d074-066c-45c9-9a81-aaa7f9913086" d="M563.73,319.16c.53,0,.89-.07,1.25-.07,7.93,0,15.86,0,23.79,0,1.16,0,1.41.36,1.41,1.46,0,11.51,0,23,0,34.55,0,1.16.29,1.54,1.49,1.52,5.4-.06,10.79,0,16.19,0,1.62,0,1.63,0,1.63-1.58V319.09h1.34c7.89,0,15.78,0,23.67,0,1.13,0,1.42.31,1.42,1.43q0,45.84,0,91.66c0,1.17-.29,1.54-1.49,1.53q-11.77-.07-23.54,0c-1.18,0-1.43-.39-1.42-1.48,0-12.95,0-25.89,0-38.84,0-1.19-.33-1.51-1.5-1.5q-8.16.09-16.31,0c-1.17,0-1.52.3-1.52,1.5,0,12.91,0,25.81,0,38.72,0,1.23-.29,1.61-1.56,1.6q-11.76-.07-23.54,0c-1.08,0-1.38-.31-1.37-1.39q0-45.94,0-91.9Z" transform="translate(-13.82 -152.49)"/><path id="a92a7ab5-4260-4576-bb6f-ebebe31165b5" data-name="U" class="b9737e15-02e8-46a5-ab28-3c00d801016c" d="M673.75,319.09v1.8q0,31.56,0,63.12a56.09,56.09,0,0,0,.4,7.33c.64,4.87,3,7.19,7.83,7.82a27.68,27.68,0,0,0,6.1.17c5.72-.53,8.94-4,9.28-9.67.11-2,.11-4,.11-6q0-31.44,0-62.88v-1.62h19.7v1.34q0,30.33,0,60.67c0,6-.65,11.91-3.05,17.5a25.68,25.68,0,0,1-16.73,15.07c-7.25,2.24-14.66,2.14-22.11,1.37a36.22,36.22,0,0,1-11.52-2.71c-9.75-4.48-15.32-11.94-16.13-22.74-.2-2.69-.3-5.39-.3-8.08q0-30.46,0-60.92c0-1.57,0-1.57,1.61-1.57h24.8Z" transform="translate(-13.82 -152.49)"/><path id="abf95660-effa-43c8-889e-099c9a789562" data-name="T" class="b9737e15-02e8-46a5-ab28-3c00d801016c" d="M749.5,332l-25,12.54V318.92h76.33V344.5L775.92,332v80c0,1.68,0,1.68-1.63,1.68H751.12c-1.62,0-1.62,0-1.62-1.59V332Z" transform="translate(-13.82 -152.49)"/><path id="b16f2903-0ae8-4efe-adf8-c53764b9d263" data-name="U" class="b9737e15-02e8-46a5-ab28-3c00d801016c" d="M333.9,409.67c-.78.29-1.29.5-1.82.69-3.89,1.35-7.71,3-11.69,4a16.76,16.76,0,0,1-15.29-3.61,17.23,17.23,0,0,1-6.27-11.44,88.86,88.86,0,0,1-.67-9.64c-.07-14,0-28-.06-42,0-1.11.37-1.45,1.41-1.61q10.31-1.59,20.57-3.32c1.19-.2,1.46.07,1.45,1.25q0,21.43,0,42.88a66.92,66.92,0,0,0,.33,7.09c.31,2.88,1.44,3.95,4.28,4.31,2.07.26,4.14.41,6.22.58,1.17.09,1.58-.4,1.58-1.65-.05-16.55,0-33.09-.06-49.63,0-1.2.33-1.6,1.51-1.77,6.95-1,13.9-2.07,20.85-3.11.23,0,.47,0,.87,0,0,.47.06.9.06,1.33q0,34.5,0,69c0,1.13-.31,1.45-1.44,1.44q-10.23-.07-20.47,0c-1,0-1.51-.23-1.4-1.35S333.9,411,333.9,409.67Z" transform="translate(-13.82 -152.49)"/><path id="eff667d0-468a-49c1-b836-77bcc54d1efb" data-name="N" class="b9737e15-02e8-46a5-ab28-3c00d801016c" d="M391.47,342.74v6.19c1.47-.66,2.7-1.27,4-1.77,2.84-1.11,5.63-2.55,8.58-3.17,10.94-2.3,20.29,4,22.27,15.05a58.93,58.93,0,0,1,.81,10.11c.08,14.59,0,29.17.06,43.75,0,1.13-.3,1.45-1.44,1.44q-10.29-.07-20.6,0c-1.06,0-1.38-.27-1.38-1.37q.06-20.09,0-40.19a57.08,57.08,0,0,0-.64-8,5.39,5.39,0,0,0-5-4.95c-1.73-.22-3.49-.17-5.23-.24-1.2-.06-1.44.56-1.43,1.67,0,11.64,0,23.28,0,34.92,0,5.6,0,11.2,0,16.79,0,1-.2,1.42-1.33,1.41q-10.37-.07-20.72,0c-1,0-1.32-.29-1.32-1.31q0-33.15,0-66.3c0-.77,0-1.27,1-1.39,7-.83,14-1.73,21-2.6C390.58,342.7,390.94,342.74,391.47,342.74Z" transform="translate(-13.82 -152.49)"/><path id="e13cc1f8-300e-490b-adfc-2ed19c20e839" data-name="T" class="b9737e15-02e8-46a5-ab28-3c00d801016c" d="M245.36,339.82l-22.28,11.24c-.05-.63-.09-1.05-.1-1.46,0-6.78,0-13.56,0-20.34,0-1.1.31-1.36,1.37-1.36q33.24,0,66.46,0c1.13,0,1.44.3,1.43,1.43-.06,6.78,0,13.56,0,20.34,0,.43,0,.86-.07,1.57l-22.64-11.41v72.72c0,1.77,0,1.77-1.81,1.77-6.95,0-13.89,0-20.84,0-1.2,0-1.49-.35-1.49-1.51q0-35.54,0-71.07Z" transform="translate(-13.82 -152.49)"/><path id="fd035ae6-d841-4434-8ec4-c9342f180b24" data-name="E" class="b9737e15-02e8-46a5-ab28-3c00d801016c" d="M459.55,381.58c.25,1.24.43,2.44.72,3.61,1.06,4.35,2.89,8.27,6.58,11A19.83,19.83,0,0,0,479.91,400,105.89,105.89,0,0,0,491,398.68c1.1-.16,1.42.11,1.57,1.16.41,3.07.91,6.13,1.39,9.2.1.64.19,1.17-.7,1.37-6.67,1.46-13.28,3.18-20,4.38a35.64,35.64,0,0,1-15.81-.44,26.8,26.8,0,0,1-17.1-13.68c-4.21-7.77-4.93-16.15-4.06-24.77a40.75,40.75,0,0,1,6-18.34,29.27,29.27,0,0,1,22.91-13.93,31.1,31.1,0,0,1,15.36,2.28c3.77,1.6,6.44,4.5,9.1,7.47,3.52,3.94,4.71,8.71,5.06,13.76.21,3.14.16,6.29.28,9.43,0,.87-.32,1.1-1.13,1.19q-16.58,1.78-33.14,3.63C460.39,381.43,460.08,381.49,459.55,381.58Zm-.26-10.86c4.27-.58,8.31-1.12,12.34-1.72a1.07,1.07,0,0,0,.67-.79,80.29,80.29,0,0,0-.87-9.47c-.66-3.35-3-4.59-6.33-3.91a5.72,5.72,0,0,0-4.16,3.65C459.29,362.33,459.37,366.42,459.29,370.72Z" transform="translate(-13.82 -152.49)"/><path id="a9713d3e-2f0e-4c6b-914e-37809c2c7af7" data-name="Z" class="a8bd9672-1397-46ee-b45d-bd69621ef3be" d="M525.32,401.85l30.6-11.92c.05.6.11,1,.11,1.44,0,7.11,0,14.22,0,21.33,0,1.05-.25,1.4-1.35,1.39q-26.25,0-52.48,0c-1.06,0-1.3-.35-1.28-1.34.05-3.51,0-7,.05-10.53a4.86,4.86,0,0,1,.77-2.48q14-20.82,28-41.59l1-1.51-.19-.28-27.4,9.14c0-.52-.1-.9-.1-1.28,0-6.25,0-12.5,0-18.75,0-1,.3-1.3,1.32-1.3q25.19,0,50.39,0c1.11,0,1.38.34,1.35,1.4-.06,3.1,0,6.21,0,9.31a4.37,4.37,0,0,1-.69,2.25q-14.64,21.6-29.37,43.16c-.29.42-.56.85-.84,1.28Z" transform="translate(-13.82 -152.49)"/><path id="e95b36fe-64cd-4bdd-8e5c-3413758e1b75" data-name="WIN" class="a8724cb3-7f55-49de-89a7-50c13e9c09a2" d="M149.17,317.93a6.4,6.4,0,0,1,3.06,5.26c.17,4.15.23,8.31.27,12.47s.1,8.46,0,12.68c-.08,2.54-.05,5.17-2,7.25a9.22,9.22,0,0,1-6.53,3.17c-2.24.09-4.49,0-6.74.05-.78,0-1-.3-1-1q0-9.36,0-18.74c0-.93.51-1.05,1.26-1q6.67,0,13.36,0c.45,0,.91-.08,1.37-.12l.07-.49a8.35,8.35,0,0,0-1.29-.24c-4.33,0-8.66,0-13,0a7.45,7.45,0,0,1-1.38-.26c.53,0,1.06-.1,1.59-.1H150.8c.63,0,1.1,0,1.08-.88-.11-4.45-.1-8.89-.32-13.33a8.27,8.27,0,0,0-1.29-2.94A19.29,19.29,0,0,0,149.17,317.93Z" transform="translate(-13.82 -152.49)"/><path id="e80ce7b7-8289-4233-9614-b5ac5a88296b" data-name="WIN" class="a0633495-f8e8-4dc4-b8e9-e4bf2b14dd97" d="M134.92,315.86c0,.44.07.83.07,1.23,0,6.2,0,12.4,0,18.6,0,1.12-.32,1.48-1.45,1.47-4.16-.05-8.32,0-12.48,0-1,0-1.43-.21-1.4-1.35.08-3.83.18-7.68,0-11.5a8.07,8.07,0,0,1,6.53-8.14,35.56,35.56,0,0,1,5.47-.3C132.69,315.83,133.71,315.86,134.92,315.86Z" transform="translate(-13.82 -152.49)"/><path id="a2eaca1f-ac6f-4048-9d47-599ae3562d5e" data-name="WIN" class="f7bfbab9-cb19-445e-aa7c-a77a5d3667bb" d="M119.8,338.12c.34,0,.69-.08,1-.08,4.29,0,8.58,0,12.87,0,1,0,1.3.33,1.3,1.33q-.06,9.12,0,18.25c0,.93-.22,1.29-1.24,1.22-2.51-.17-5.08,0-7.55-.37a7.6,7.6,0,0,1-5.78-4.48,7.13,7.13,0,0,1-.69-2.8c-.09-4.2-.06-8.4-.07-12.61A2.08,2.08,0,0,1,119.8,338.12Z" transform="translate(-13.82 -152.49)"/><path id="a92ff535-6354-4e5e-a248-7de6bc686745" data-name="WIN" class="e8893a14-e194-459d-ac8d-8ef3ffb3389e" d="M149.17,317.93a19.29,19.29,0,0,1,1.1,1.72,8.27,8.27,0,0,1,1.29,2.94c.22,4.44.21,8.88.32,13.33,0,.85-.45.88-1.08.88H138.17c-.53,0-1.06.06-1.59.1h0c0-.49.08-1,.08-1.46V317.82c0-1.61,0-1.61,1.56-1.61,1.79,0,3.59,0,5.38,0a5.69,5.69,0,0,0,1.15-.22l3.43,1.26,1,.7Z" transform="translate(-13.82 -152.49)"/></g></svg>